<?xml version="1.0" encoding="UTF-8" standalone="no"?>
<!-- Generator: Adobe Illustrator 24.0.0, SVG Export Plug-In . SVG Version: 6.00 Build 0)  -->

<svg
   version="1.1"
   id="Calque_1"
   x="0px"
   y="0px"
   viewBox="0 0 634.39453 224.21875"
   xml:space="preserve"
   sodipodi:docname="0d4c218db535477f97c1f02b10189159.svgz"
   width="634.39453"
   height="224.21875"
   xmlns:inkscape="http://www.inkscape.org/namespaces/inkscape"
   xmlns:sodipodi="http://sodipodi.sourceforge.net/DTD/sodipodi-0.dtd"
   xmlns="http://www.w3.org/2000/svg"
   xmlns:svg="http://www.w3.org/2000/svg"><defs
   id="defs45" /><sodipodi:namedview
   id="namedview43"
   pagecolor="#ffffff"
   bordercolor="#666666"
   borderopacity="1.0"
   inkscape:pageshadow="2"
   inkscape:pageopacity="0.0"
   inkscape:pagecheckerboard="0" />
<style
   type="text/css"
   id="style2">
	.st0{fill:#FFF0D2;}
	.st1{fill:url(#SVGID_1_);}
	.st2{fill:#FFD9D9;}
	.st3{fill:#1D1649;}
	.st4{fill:#FFC1C1;}
	.st5{opacity:0.61;}
	.st6{clip-path:url(#SVGID_3_);}
	.st7{fill:#8B70B7;}
	.st8{fill:#AC83C4;}
	.st9{fill:#6E4B9D;}
	.st10{fill:#7653AD;}
	.st11{clip-path:url(#SVGID_5_);}
	.st12{clip-path:url(#SVGID_7_);}
	.st13{fill:url(#SVGID_8_);}
	.st14{fill:#313068;}
	.st15{fill:#0D0E22;}
	.st16{fill:#131633;}
	.st17{fill:#606060;}
	.st18{fill:#39325A;}
	.st19{fill:url(#SVGID_9_);}
	.st20{clip-path:url(#SVGID_11_);}
	.st21{clip-path:url(#SVGID_13_);}
	.st22{clip-path:url(#SVGID_15_);}
	.st23{fill:url(#SVGID_16_);}
	.st24{fill:none;stroke:#39325A;stroke-width:4;stroke-linecap:round;stroke-linejoin:round;stroke-miterlimit:10;}
	.st25{fill:none;stroke:#39325A;stroke-width:2;stroke-linecap:round;stroke-linejoin:round;stroke-miterlimit:10;}
	.st26{fill:none;stroke:#39325A;stroke-width:3;stroke-linecap:round;stroke-linejoin:round;stroke-miterlimit:10;}
	.st27{font-family:'DMSerifDisplay-Regular';}
	.st28{font-size:120px;}
	.st29{font-size:150px;}
</style>
<text
   class="st18 st27 st28"
   id="text4"
   x="-7.6757812"
   y="222.8125">le dimanche</text>
<g
   id="g40"
   transform="translate(-5.7182813,2.2383)">
	<text
   transform="translate(146.5974,105.5742)"
   class="st18 st27 st29"
   id="text6">17h</text>
	<g
   id="g38">
		<polygon
   class="st24"
   points="451.65,72.92 495.55,84.68 459.98,55.99 472.03,11.23 436.45,45.09 396.28,39.35 428.7,63.74 416.94,104.77 "
   id="polygon8" />
		<polyline
   class="st25"
   points="464.85,22.99 443.62,58 421.81,97.02   "
   id="polyline10" />
		<polyline
   class="st25"
   points="407.47,43.65 442.47,58 484.36,79.23   "
   id="polyline12" />
		<polyline
   class="st26"
   points="445.92,84.97 455.1,96.45 459.11,80.38   "
   id="polyline14" />
		<polyline
   class="st26"
   points="421.53,73.78 407.18,73.78 414.64,60.58   "
   id="polyline16" />
		<polyline
   class="st26"
   points="421.53,37.05 426.12,21.56 440.46,33.04   "
   id="polyline18" />
		<polyline
   class="st26"
   points="468.01,43.94 482.93,43.94 471.45,60.58   "
   id="polyline20" />
		<path
   class="st26"
   d="m 482.93,85.1 c -11.55,16.29 -34.12,22.43 -54.81,14.77"
   id="path22" />
		<path
   class="st26"
   d="m 471.85,24.63 c 15.4,12.34 22.18,32 16.61,49.4"
   id="path24" />
		<path
   class="st26"
   d="M 398.79,36.3 C 409.18,15.38 435.61,7.15 459.01,17"
   id="path26" />
		<path
   class="st26"
   d="M 416.36,93.79 C 399.3,82.14 391.12,62.04 395.91,43.94"
   id="path28" />
		<line
   class="st25"
   x1="411.48001"
   y1="71.769997"
   x2="424.10999"
   y2="65.459999"
   id="line30" />
		<line
   class="st25"
   x1="427.54999"
   y1="25.860001"
   x2="433.87"
   y2="40.209999"
   id="line32" />
		<line
   class="st25"
   x1="464.85001"
   y1="54.560001"
   x2="478.04999"
   y2="46.52"
   id="line34" />
		<line
   class="st25"
   x1="453.95001"
   y1="91.279999"
   x2="451.64999"
   y2="77.510002"
   id="line36" />
	</g>
</g>
</svg>
