<?xml version="1.0" encoding="utf-8"?>
<!-- Generator: Adobe Illustrator 24.0.0, SVG Export Plug-In . SVG Version: 6.00 Build 0)  -->
<svg version="1.1" id="Calque_1" xmlns="http://www.w3.org/2000/svg" xmlns:xlink="http://www.w3.org/1999/xlink" x="0px" y="0px"
	 viewBox="0 0 530 530" style="enable-background:new 0 0 530 530;" xml:space="preserve">
<style type="text/css">
	.st0{fill:#FFF7E4;}
	.st1{fill:url(#SVGID_1_);}
	.st2{fill:#FFF0D2;}
	.st3{fill:url(#SVGID_2_);}
	.st4{fill:#FFD9D9;}
	.st5{fill:#1D1649;}
	.st6{fill:#FFC1C1;}
	.st7{opacity:0.61;}
	.st8{clip-path:url(#SVGID_4_);}
	.st9{fill:#8B70B7;}
	.st10{fill:#AC83C4;}
	.st11{fill:#6E4B9D;}
	.st12{fill:#7653AD;}
	.st13{clip-path:url(#SVGID_6_);}
	.st14{clip-path:url(#SVGID_8_);}
	.st15{fill:url(#SVGID_9_);}
	.st16{fill:#313068;}
	.st17{fill:#0D0E22;}
	.st18{fill:#131633;}
	.st19{fill:#606060;}
	.st20{fill:#39325A;}
	.st21{fill:url(#SVGID_10_);}
	.st22{clip-path:url(#SVGID_12_);}
	.st23{clip-path:url(#SVGID_14_);}
	.st24{clip-path:url(#SVGID_16_);}
	.st25{fill:url(#SVGID_17_);}
	.st26{fill:none;stroke:#39325A;stroke-width:4;stroke-linecap:round;stroke-linejoin:round;stroke-miterlimit:10;}
	.st27{fill:none;stroke:#39325A;stroke-width:2;stroke-linecap:round;stroke-linejoin:round;stroke-miterlimit:10;}
	.st28{fill:none;stroke:#39325A;stroke-width:3;stroke-linecap:round;stroke-linejoin:round;stroke-miterlimit:10;}
	.st29{fill:url(#SVGID_18_);}
	.st30{fill:none;stroke:#39325A;stroke-width:5;stroke-linecap:round;stroke-linejoin:round;stroke-miterlimit:10;}
	.st31{fill:url(#SVGID_19_);}
	.st32{fill:url(#SVGID_20_);}
	.st33{fill:none;stroke:#39325A;stroke-width:5;stroke-linecap:round;stroke-linejoin:round;}
	.st34{fill:none;stroke:#39325A;stroke-width:5;stroke-linecap:round;stroke-linejoin:round;stroke-dasharray:14.4785,14.4785;}
	.st35{fill:none;stroke:#39325A;stroke-width:5;stroke-linecap:round;stroke-linejoin:round;stroke-dasharray:15.4179,15.4179;}
	.st36{fill:url(#SVGID_21_);}
	.st37{fill:url(#SVGID_22_);}
	.st38{fill:url(#SVGID_23_);}
	.st39{fill:url(#SVGID_24_);}
	.st40{fill:url(#SVGID_25_);}
</style>
<g>
	<linearGradient id="SVGID_1_" gradientUnits="userSpaceOnUse" x1="22.1605" y1="262.4315" x2="508" y2="262.4315">
		<stop  offset="0" style="stop-color:#FFC1C1"/>
		<stop  offset="1" style="stop-color:#FFD0A1"/>
	</linearGradient>
	<path class="st1" d="M505.09,366.25c-29.95,80.64-105.15,107.01-185.18,94.92c-80.03-12.1-120.97-36.29-191.69-36.29
		s-133.07-52.11-93.99-155.4S149.99,85.74,236.16,67.54c149.82-31.64,186.08,57.29,172.14,107.28
		C394.35,224.81,529.28,301.11,505.09,366.25z"/>
	<g>
		<ellipse class="st30" cx="256.12" cy="301.61" rx="131.44" ry="100.59"/>
		<ellipse class="st30" cx="256.43" cy="301.3" rx="116.63" ry="84.54"/>
		<path class="st30" d="M158.93,420.4c4.32-3.09,8.02-5.55,9.87-8.02s-4.89-21.32-18.51-22.83c-5.55-0.62-22.22,12.96-22.22,12.96
			s0,10.49,6.79,17.9c6.79,7.41,13.58,8.02,16.66,5.55"/>
		<path class="st30" d="M155.23,416.7c3.7,3.7,7.41,20.36,0,35.17c-7.41,14.81-31.52,32.07-59.24,20.98
			c-15.43-6.17-20.98-22.22-19.75-35.79c1.23-13.58,11.59-31.01,29.62-37.03c12.96-4.32,25.39-2.85,28.12-2.04"/>
		<path class="st30" d="M150.91,424.11c3.7,5.55-2.87,30.73-13.58,37.03c-10.49,6.17-29,14.19-45.05,0
			c-16.04-14.19-8.02-33.94,1.23-43.81c9.26-9.87,24.68-14.19,34.56-11.72"/>
		<path class="st30" d="M251.51,331.62c0,0-2.72-21.76,0-24.48c2.72-2.72,14.28-2.04,16.32,2.04c2.04,4.08,0,19.04,0,19.04
			S264.43,335.02,251.51,331.62z"/>
		<path class="st30" d="M250.39,311.64c-7.04,2.3-11.12,6.38-12.48,9.78c-8.84,4.76-63.25,34.68-63.25,34.68l72.09-20.4
			c4.76,2.72,25.84,7.48,32.64-10.2c4.76-2.72,61.89-33.32,61.89-33.32l-68.01,17.68c-3.4,0-4.76-0.68-4.76-0.68"/>
		<path class="st30" d="M384.48,346.66c-8.64,27.15-48.75,74.05-136.38,73.44"/>
		<path class="st30" d="M348.84,230.32c4.16-5.23,6.63-8.93,6.63-8.93s-46.28-38.88-70.97-65.41
			c-24.68-26.54-54.3-72.82-45.05-85.78c9.26-12.96,20.36-17.28,20.36-17.28c59.24,13.58,116.02,62.33,149.34,103.06
			s48.75,69.12,51.84,88.25c-3.09,8.02-14.19,22.22-19.13,25.3c-15.43-0.62-64.8-29-64.8-29l-8.73,8.71"/>
		<path class="st30" d="M239.77,70.51c22.83-6.17,74.6,16.15,157.98,104.91c19.13,20.36,57.9,75.84,47.15,91.61"/>
		<path class="st30" d="M278.03,118.64c52.45,65.41,98.12,108.61,141.93,130.21"/>
		<line class="st30" x1="172.44" y1="273.31" x2="180.69" y2="286.28"/>
		<line class="st30" x1="266.73" y1="240.31" x2="265.55" y2="256.81"/>
		<line class="st30" x1="336.26" y1="267.42" x2="329.19" y2="280.38"/>
		<line class="st30" x1="361.01" y1="313.38" x2="349.23" y2="321.63"/>
		<path class="st30" d="M140.33,393.69c-9.98-14.18-15.65-30.41-15.65-47.64V301.3"/>
		<path class="st30" d="M387.56,301.3v44.74c0,55.55-58.85,100.59-131.44,100.59c-36.23,0-69.03-11.22-92.81-29.36"/>
	</g>
</g>
</svg>
