<?xml version="1.0" encoding="utf-8"?>
<!-- Generator: Adobe Illustrator 24.0.0, SVG Export Plug-In . SVG Version: 6.00 Build 0)  -->
<svg version="1.1" id="Calque_1" xmlns="http://www.w3.org/2000/svg" xmlns:xlink="http://www.w3.org/1999/xlink" x="0px" y="0px"
	 viewBox="0 0 530 530" style="enable-background:new 0 0 530 530;" xml:space="preserve">
<style type="text/css">
	.st0{fill:#FFF7E4;}
	.st1{fill:url(#SVGID_1_);}
	.st2{fill:#FFF0D2;}
	.st3{fill:url(#SVGID_2_);}
	.st4{fill:#FFD9D9;}
	.st5{fill:#1D1649;}
	.st6{fill:#FFC1C1;}
	.st7{opacity:0.61;}
	.st8{clip-path:url(#SVGID_4_);}
	.st9{fill:#8B70B7;}
	.st10{fill:#AC83C4;}
	.st11{fill:#6E4B9D;}
	.st12{fill:#7653AD;}
	.st13{clip-path:url(#SVGID_6_);}
	.st14{clip-path:url(#SVGID_8_);}
	.st15{fill:url(#SVGID_9_);}
	.st16{fill:#313068;}
	.st17{fill:#0D0E22;}
	.st18{fill:#131633;}
	.st19{fill:#606060;}
	.st20{fill:#39325A;}
	.st21{fill:url(#SVGID_10_);}
	.st22{clip-path:url(#SVGID_12_);}
	.st23{clip-path:url(#SVGID_14_);}
	.st24{clip-path:url(#SVGID_16_);}
	.st25{fill:url(#SVGID_17_);}
	.st26{fill:none;stroke:#39325A;stroke-width:4;stroke-linecap:round;stroke-linejoin:round;stroke-miterlimit:10;}
	.st27{fill:none;stroke:#39325A;stroke-width:2;stroke-linecap:round;stroke-linejoin:round;stroke-miterlimit:10;}
	.st28{fill:none;stroke:#39325A;stroke-width:3;stroke-linecap:round;stroke-linejoin:round;stroke-miterlimit:10;}
	.st29{fill:url(#SVGID_18_);}
	.st30{fill:none;stroke:#39325A;stroke-width:5;stroke-linecap:round;stroke-linejoin:round;stroke-miterlimit:10;}
	.st31{fill:url(#SVGID_19_);}
	.st32{fill:url(#SVGID_20_);}
	.st33{fill:none;stroke:#39325A;stroke-width:5;stroke-linecap:round;stroke-linejoin:round;}
	.st34{fill:none;stroke:#39325A;stroke-width:5;stroke-linecap:round;stroke-linejoin:round;stroke-dasharray:14.4785,14.4785;}
	.st35{fill:none;stroke:#39325A;stroke-width:5;stroke-linecap:round;stroke-linejoin:round;stroke-dasharray:15.4179,15.4179;}
	.st36{fill:url(#SVGID_21_);}
	.st37{fill:url(#SVGID_22_);}
	.st38{fill:url(#SVGID_23_);}
	.st39{fill:url(#SVGID_24_);}
	.st40{fill:url(#SVGID_25_);}
</style>
<linearGradient id="SVGID_1_" gradientUnits="userSpaceOnUse" x1="-2617.8315" y1="-6255.4854" x2="-2723.6135" y2="-6546.1187" gradientTransform="matrix(-0.9953 0.0968 -0.0968 -0.9953 -3014.5974 -5811.5938)">
	<stop  offset="0" style="stop-color:#FFC1C1"/>
	<stop  offset="1" style="stop-color:#FFD0A1"/>
</linearGradient>
<path class="st1" d="M239.08,458.22c-53.3,2.1-89.07-26.96-144.72-61.4S-18.51,282.06,77.58,231.64
	c89.21-46.81,218.1-146.2,284.34-106.44s192.13,173.64,109.6,223.91C351.16,422.42,345.09,454.05,239.08,458.22z"/>
<polyline class="st30" points="219.74,202.96 335.93,176.47 406.64,197.71 363.81,256.04 185.75,297.05 174.06,213.38 
	219.74,202.96 "/>
<polygon class="st30" points="323.17,103.54 167.27,95.04 128.27,116.71 144.52,152.81 313.25,163.98 "/>
<polyline class="st30" points="223.14,288.44 227.61,460.29 253.28,455.44 252.16,282.87 "/>
<line class="st30" x1="219.75" y1="157.79" x2="220.91" y2="202.59"/>
<polyline class="st30" points="250.96,99.63 250.8,74.91 217.63,76.61 218.18,97.77 "/>
<line class="st30" x1="251.59" y1="195.75" x2="251.36" y2="159.88"/>
<g>
	<path class="st30" d="M226.12,424.64c-17.99-16.94-86.85-80.27-105.51-142.17c-10.82-35.89-27.05-55.21-36.52-62.11"/>
	<path class="st30" d="M191.87,391.01c8.55-22.97,4.01-66.26-20.77-23.22"/>
	<path class="st30" d="M157.13,350.1c-24.05,6.07-45.99-9.66-41.94-17.94s12.53-11.04,29.76,1.38"/>
	<path class="st30" d="M133.11,312.78c11.17-19.96,7.83-49.08-10.79-24.86"/>
	<path class="st30" d="M108.03,251.18c-16.51-8.05-45.38,3.84,8.29,18.6"/>
</g>
<path class="st30" d="M363.07,327.3c-1.13,36.22-42.94,60.75-72.81,89.12c-9.25,8.78-19.43,31.24-27.92,32.46"/>
<path class="st30" d="M326.66,381.27c-12.26-16.62,3.28-52.92,10.94-9.26"/>
<path class="st30" d="M352.25,355.53c14.21,0.07,26.77-3.37,27.79-14.65c0.57-6.22-10.75-0.57-21.11,3.56"/>
<path class="st30" d="M252.72,330.13c14.71-19.24,43.95,3.61,54.15,11.26c-2.55-36.58,28.07-47.64,39.98-40.83
	c1.7-9.36,37.43-31.47,62.1-32.32c24.67-0.85,34.88,42.53,20.42,73.15c31.47,1.7,13.61,46.79-21.16,56.03
	c0,0,22.86,7.77,14.36,23.93c-8.51,16.16-58.73,17.94-58.73,17.94c-25.48-0.08-89.56,28.4-109.98,2.88"/>
<path class="st30" d="M148.69,337.94c9.14,0.96,17.46,4.71,24.8,11.44c4.53-20.37,29.62-44.86,50.46-29.79"/>
<path class="st30" d="M225.56,452.36c-41.88,5.66-73.57,9.05-97.33-13.58s-12.45-38.48,0-39.61c-12.7-20.11-22.43-47.14-7.91-56.12"
	/>
</svg>
