<?xml version="1.0" encoding="utf-8"?>
<!-- Generator: Adobe Illustrator 24.0.0, SVG Export Plug-In . SVG Version: 6.00 Build 0)  -->
<svg version="1.1" id="Calque_1" xmlns="http://www.w3.org/2000/svg" xmlns:xlink="http://www.w3.org/1999/xlink" x="0px" y="0px"
	 viewBox="0 0 530 530" style="enable-background:new 0 0 530 530;" xml:space="preserve">
<style type="text/css">
	.st0{fill:#FFF7E4;}
	.st1{fill:url(#SVGID_1_);}
	.st2{fill:#FFF0D2;}
	.st3{fill:url(#SVGID_2_);}
	.st4{fill:#FFD9D9;}
	.st5{fill:#1D1649;}
	.st6{fill:#FFC1C1;}
	.st7{opacity:0.61;}
	.st8{clip-path:url(#SVGID_4_);}
	.st9{fill:#8B70B7;}
	.st10{fill:#AC83C4;}
	.st11{fill:#6E4B9D;}
	.st12{fill:#7653AD;}
	.st13{clip-path:url(#SVGID_6_);}
	.st14{clip-path:url(#SVGID_8_);}
	.st15{fill:url(#SVGID_9_);}
	.st16{fill:#313068;}
	.st17{fill:#0D0E22;}
	.st18{fill:#131633;}
	.st19{fill:#606060;}
	.st20{fill:#39325A;}
	.st21{fill:url(#SVGID_10_);}
	.st22{clip-path:url(#SVGID_12_);}
	.st23{clip-path:url(#SVGID_14_);}
	.st24{clip-path:url(#SVGID_16_);}
	.st25{fill:url(#SVGID_17_);}
	.st26{fill:none;stroke:#39325A;stroke-width:4;stroke-linecap:round;stroke-linejoin:round;stroke-miterlimit:10;}
	.st27{fill:none;stroke:#39325A;stroke-width:2;stroke-linecap:round;stroke-linejoin:round;stroke-miterlimit:10;}
	.st28{fill:none;stroke:#39325A;stroke-width:3;stroke-linecap:round;stroke-linejoin:round;stroke-miterlimit:10;}
	.st29{fill:url(#SVGID_18_);}
	.st30{fill:none;stroke:#39325A;stroke-width:5;stroke-linecap:round;stroke-linejoin:round;stroke-miterlimit:10;}
	.st31{fill:url(#SVGID_19_);}
	.st32{fill:url(#SVGID_20_);}
	.st33{fill:none;stroke:#39325A;stroke-width:5;stroke-linecap:round;stroke-linejoin:round;}
	.st34{fill:none;stroke:#39325A;stroke-width:5;stroke-linecap:round;stroke-linejoin:round;stroke-dasharray:14.4785,14.4785;}
	.st35{fill:none;stroke:#39325A;stroke-width:5;stroke-linecap:round;stroke-linejoin:round;stroke-dasharray:15.4179,15.4179;}
	.st36{fill:url(#SVGID_21_);}
	.st37{fill:url(#SVGID_22_);}
	.st38{fill:url(#SVGID_23_);}
	.st39{fill:url(#SVGID_24_);}
	.st40{fill:url(#SVGID_25_);}
</style>
<g>
	<linearGradient id="SVGID_1_" gradientUnits="userSpaceOnUse" x1="323.6993" y1="448.2698" x2="205.3547" y2="123.1207">
		<stop  offset="0" style="stop-color:#FFC1C1"/>
		<stop  offset="1" style="stop-color:#FFD0A1"/>
	</linearGradient>
	<path class="st1" d="M327.84,98.49c60.29,3.48,112.15,43.76,112.15,43.76s88.68,72.77,28.27,179.76S223.22,512.34,152.94,460.29
		S-42.41,271.03,56.1,223.42C199.76,154,207.93,91.57,327.84,98.49z"/>
	<g>
		<polygon class="st30" points="15.99,328.62 197.53,97.11 290.8,163.73 412.39,132.08 513.99,223.69 341.6,442.71 227.51,375.25 
			120.92,396.9 		"/>
		<line class="st30" x1="264.99" y1="341.1" x2="388.34" y2="176.63"/>
		<line class="st30" x1="120.31" y1="397.45" x2="239.1" y2="248.2"/>
		<g>
			<g>
				<path class="st33" d="M146.52,162.16c0,0-1.29,2.5-3.1,6.82"/>
				<path class="st34" d="M138.48,182.58c-4.56,14.61-8.59,35.12-4.46,54.96c5.99,28.75,19.52,58.45,33.92,73.52"/>
				<path class="st33" d="M173.29,315.94c2.15,1.66,4.29,2.96,6.42,3.84c2.1-1.05,4.31-2.22,6.63-3.5"/>
				<path class="st35" d="M199.64,308.5c50.5-30.9,131.26-92.47,158.02-90.96c37.14,27.19,83.36,85.98,27.63,118.49"/>
				<path class="st33" d="M378.46,339.62c-2.17,1.03-4.46,2.04-6.87,3"/>
			</g>
		</g>
		<line class="st30" x1="354.84" y1="319.78" x2="335.04" y2="371.56"/>
		<path class="st30" d="M318.29,331.97c18.28,6.09,44.17,30.46,54.83,39.6"/>
	</g>
</g>
</svg>
