<?xml version="1.0" encoding="utf-8"?>
<!-- Generator: Adobe Illustrator 24.0.0, SVG Export Plug-In . SVG Version: 6.00 Build 0)  -->
<svg version="1.1" id="Calque_1" xmlns="http://www.w3.org/2000/svg" xmlns:xlink="http://www.w3.org/1999/xlink" x="0px" y="0px"
	 viewBox="0 0 530 530" style="enable-background:new 0 0 530 530;" xml:space="preserve">
<style type="text/css">
	.st0{fill:#FFF7E4;}
	.st1{fill:url(#SVGID_1_);}
	.st2{fill:#FFF0D2;}
	.st3{fill:url(#SVGID_2_);}
	.st4{fill:#FFD9D9;}
	.st5{fill:#1D1649;}
	.st6{fill:#FFC1C1;}
	.st7{opacity:0.61;}
	.st8{clip-path:url(#SVGID_4_);}
	.st9{fill:#8B70B7;}
	.st10{fill:#AC83C4;}
	.st11{fill:#6E4B9D;}
	.st12{fill:#7653AD;}
	.st13{clip-path:url(#SVGID_6_);}
	.st14{clip-path:url(#SVGID_8_);}
	.st15{fill:url(#SVGID_9_);}
	.st16{fill:#313068;}
	.st17{fill:#0D0E22;}
	.st18{fill:#131633;}
	.st19{fill:#606060;}
	.st20{fill:#39325A;}
	.st21{fill:url(#SVGID_10_);}
	.st22{clip-path:url(#SVGID_12_);}
	.st23{clip-path:url(#SVGID_14_);}
	.st24{clip-path:url(#SVGID_16_);}
	.st25{fill:url(#SVGID_17_);}
	.st26{fill:none;stroke:#39325A;stroke-width:4;stroke-linecap:round;stroke-linejoin:round;stroke-miterlimit:10;}
	.st27{fill:none;stroke:#39325A;stroke-width:2;stroke-linecap:round;stroke-linejoin:round;stroke-miterlimit:10;}
	.st28{fill:none;stroke:#39325A;stroke-width:3;stroke-linecap:round;stroke-linejoin:round;stroke-miterlimit:10;}
	.st29{fill:url(#SVGID_18_);}
	.st30{fill:none;stroke:#39325A;stroke-width:5;stroke-linecap:round;stroke-linejoin:round;stroke-miterlimit:10;}
	.st31{fill:url(#SVGID_19_);}
	.st32{fill:url(#SVGID_20_);}
	.st33{fill:none;stroke:#39325A;stroke-width:5;stroke-linecap:round;stroke-linejoin:round;}
	.st34{fill:none;stroke:#39325A;stroke-width:5;stroke-linecap:round;stroke-linejoin:round;stroke-dasharray:14.4785,14.4785;}
	.st35{fill:none;stroke:#39325A;stroke-width:5;stroke-linecap:round;stroke-linejoin:round;stroke-dasharray:15.4179,15.4179;}
	.st36{fill:url(#SVGID_21_);}
	.st37{fill:url(#SVGID_22_);}
	.st38{fill:url(#SVGID_23_);}
	.st39{fill:url(#SVGID_24_);}
	.st40{fill:url(#SVGID_25_);}
</style>
<linearGradient id="SVGID_1_" gradientUnits="userSpaceOnUse" x1="152.1504" y1="494.9057" x2="402.6286" y2="61.0647">
	<stop  offset="0" style="stop-color:#FFC1C1"/>
	<stop  offset="1" style="stop-color:#FFD0A1"/>
</linearGradient>
<path class="st1" d="M293.01,51.87c86.66-20.28,188.28,25.86,224.49,157.25c33.04,119.89-116.9,132.42-171.73,221.39
	c-32.89,53.38-243.11,92.07-311.39-23.79c-63.34-107.49,47.59-169.66,112.76-190.35S195.76,74.63,293.01,51.87z"/>
<polyline class="st30" points="134.74,236.63 118.57,236.63 198.11,116.64 434.04,104.5 "/>
<line class="st30" x1="385.5" y1="233.93" x2="385.5" y2="303.36"/>
<path class="st30" d="M21.5,374.14c-29-34.8-13.48-83.59,32.36-53.93c-25.62-52.58,12.13-71.45,40.45-70.1
	c30.26,1.44,45.84,53.93,45.84,53.93c26.96-31.01,131.19,15.96,63.57,98.31c-38.17,2.92-133.68,14.94-144.46,10.89
	C48.46,409.19,34.98,390.32,21.5,374.14z"/>
<polyline class="st30" points="418.02,395.37 415.16,287.86 455.61,282.46 455.61,379.53 "/>
<ellipse class="st30" cx="434.04" cy="221.8" rx="14.83" ry="22.92"/>
<path class="st30" d="M83.51,282.46c20.22,41.79,41.79,113.25,41.79,113.25"/>
<path class="st30" d="M41.72,345.83c10.79,13.48,41.79,49.88,48.53,55.27"/>
<line class="st30" x1="175.19" y1="322.91" x2="167.1" y2="388.97"/>
<line class="st30" x1="171.53" y1="352.77" x2="199.46" y2="339.09"/>
<line class="st30" x1="168.45" y1="372.79" x2="150.92" y2="341.78"/>
<line class="st30" x1="112.4" y1="355.94" x2="141.48" y2="320.21"/>
<line class="st30" x1="103.74" y1="341.78" x2="74.08" y2="339.09"/>
<line class="st30" x1="97.52" y1="315.08" x2="107.78" y2="291.9"/>
<line class="st30" x1="65.99" y1="374.75" x2="32.28" y2="367.4"/>
<polyline class="st30" points="134.07,288.34 134.07,237.19 385.5,233.93 434.61,105.18 479.2,222.36 479.2,369.58 390.01,407.17 
	203.71,402.34 "/>
<rect x="226.42" y="273.03" class="st30" width="102.46" height="72.8"/>
<line class="st30" x1="277.65" y1="273.03" x2="276.3" y2="345.83"/>
<line class="st30" x1="226.42" y1="309.43" x2="328.88" y2="309.43"/>
<polygon class="st30" points="229.2,138.48 263.7,138.48 263.7,166.48 252.2,188.48 229.2,188.48 "/>
<line class="st30" x1="253.7" y1="166.48" x2="253.7" y2="138.48"/>
</svg>
